<?xml version="1.0" encoding="utf-8"?>
<!-- Generator: Adobe Illustrator 26.5.0, SVG Export Plug-In . SVG Version: 6.00 Build 0)  -->
<svg version="1.1" baseProfile="tiny" id="Layer_1" xmlns="http://www.w3.org/2000/svg" xmlns:xlink="http://www.w3.org/1999/xlink"
	 x="0px" y="0px" viewBox="0 0 250 250" overflow="visible" xml:space="preserve">
<g>
	<path fill-rule="evenodd" fill="#010101" d="M25,0h200c13.8,0,25,11.2,25,25v200c0,13.8-11.2,25-25,25H25c-13.8,0-25-11.2-25-25V25
		C0,11.2,11.2,0,25,0z"/>
	<path fill-rule="evenodd" fill="#EE1D52" d="M161.2,101.4c10.9,7.8,24.4,12.4,38.8,12.4V86c-2.7,0-5.5-0.3-8.2-0.9v21.9
		c-14.5,0-27.9-4.6-38.8-12.4v56.8c0,28.4-23.1,51.5-51.5,51.5c-10.6,0-20.5-3.2-28.7-8.7c9.4,9.6,22.4,15.5,36.8,15.5
		c28.4,0,51.5-23,51.5-51.5L161.2,101.4L161.2,101.4z M171.2,73.3c-5.6-6.1-9.3-14-10.1-22.7V47h-7.7
		C155.4,58.1,162,67.6,171.2,73.3z M90.8,172.4c-3.1-4.1-4.8-9.1-4.8-14.3c0-13,10.5-23.5,23.6-23.5c2.4,0,4.8,0.4,7.1,1.1v-28.5
		c-2.7-0.4-5.4-0.5-8.2-0.5V129c-2.3-0.7-4.7-1.1-7.2-1.1c-13,0-23.6,10.5-23.6,23.5C77.9,160.6,83.1,168.6,90.8,172.4z"/>
	<path fill-rule="evenodd" fill="#FFFFFF" d="M153,94.7c10.9,7.8,24.4,12.4,38.8,12.4V85.2c-8.1-1.7-15.2-5.9-20.6-11.8
		c-9.2-5.7-15.8-15.2-17.8-26.3h-20.3v111.2c0,13-10.6,23.5-23.6,23.5c-7.7,0-14.4-3.6-18.8-9.3c-7.7-3.9-13-11.8-13-21
		c0-13,10.5-23.5,23.6-23.5c2.5,0,4.9,0.4,7.2,1.1v-22.2c-27.9,0.6-50.4,23.4-50.4,51.5c0,14,5.6,26.7,14.7,36
		c8.2,5.5,18.1,8.7,28.7,8.7c28.4,0,51.5-23,51.5-51.5L153,94.7z"/>
	<path fill-rule="evenodd" fill="#69C9D0" d="M191.8,85.2v-5.9c-7.3,0-14.4-2-20.6-5.9C176.7,79.3,183.9,83.5,191.8,85.2z M153.4,47
		c-0.2-1.1-0.3-2.1-0.4-3.2v-3.6h-28v111.2c0,13-10.6,23.5-23.6,23.5c-3.8,0-7.4-0.9-10.6-2.5c4.3,5.6,11.1,9.3,18.8,9.3
		c13,0,23.5-10.5,23.6-23.5V47H153.4z M108.6,106.8v-6.3c-2.3-0.3-4.7-0.5-7.1-0.5c-28.4,0-51.5,23-51.5,51.5
		c0,17.8,9.1,33.5,22.8,42.8c-9.1-9.3-14.7-22-14.7-36C58.2,130.2,80.6,107.4,108.6,106.8z"/>
</g>
</svg>
