<?xml version="1.0" encoding="utf-8"?>
<!-- Generator: Adobe Illustrator 27.6.1, SVG Export Plug-In . SVG Version: 6.00 Build 0)  -->
<svg version="1.1" id="svg318" xmlns="http://www.w3.org/2000/svg" xmlns:xlink="http://www.w3.org/1999/xlink" x="0px" y="0px"
	 viewBox="0 0 1024 1024" style="enable-background:new 0 0 1024 1024;" xml:space="preserve">
<style type="text/css">
	.st0{fill:#FFFFFF;}
	.st1{fill:url(#SVGID_1_);}
	.st2{fill:url(#SVGID_00000141433083900692430020000004132630976780710797_);}
</style>
<path class="st0" d="M511.1,994.3c267,0,482.3-215.4,482.3-482.3S776.3,29.7,511.1,29.7C244.1,29.7,28.8,245,28.8,512
	C28.8,777.2,244.1,994.3,511.1,994.3z"/>
<linearGradient id="SVGID_1_" gradientUnits="userSpaceOnUse" x1="685.1881" y1="1340.4586" x2="571.4973" y2="1966.79" gradientTransform="matrix(1 0 0 1 0 -1024.1102)">
	<stop  offset="0" style="stop-color:#FF496A"/>
	<stop  offset="1" style="stop-color:#E42648"/>
</linearGradient>
<path class="st1" d="M883.1,211.2c-33.8,7.1-65.9,16-90.8,21.4c-60.5,14.2-115.7,58.7-128.1,142.4c-10.7,74.7,14.2,106.8,3.6,194
	C648.2,722,502.2,773.6,434.6,805.7c-39.2,17.8-135.3,60.5-208.2,92.5c80.1,58.7,178,94.3,286.5,94.3c267,0,482.3-215.4,482.3-482.3
	c0-113.9-39.2-217.1-105-300.8C886.6,211.2,884.9,211.2,883.1,211.2z"/>
<linearGradient id="SVGID_00000011017484221035817940000016669919855653230262_" gradientUnits="userSpaceOnUse" x1="304.7211" y1="1779.0088" x2="556.0901" y2="1069.1375" gradientTransform="matrix(1 0 0 1 0 -1024.1102)">
	<stop  offset="1.812290e-03" style="stop-color:#1158F1"/>
	<stop  offset="1" style="stop-color:#119BED"/>
</linearGradient>
<path style="fill:url(#SVGID_00000011017484221035817940000016669919855653230262_);" d="M455.9,440.8
	c37.4-80.1,23.1-80.1,51.6-156.6c35.6-96.1,145.9-67.6,176.2-64.1c49.8,7.1,64.1-10.7,169.1-28.5c5.3,0,10.7-1.8,16-1.8
	C779.9,92,651.7,29.7,509.3,29.7c-190.4,0-356,112.1-434.3,274.1C235.2,342.9,406.1,428.4,455.9,440.8z M350.9,113.3
	c14.2,1.8,81.9,87.2,94.3,304.3c0,0-87.2-21.4-106.8-65.9C324.2,314.4,343.8,264.6,350.9,113.3z M886.6,211.2L886.6,211.2
	c0,0-1.8,0-3.6,0C884.9,211.2,886.6,211.2,886.6,211.2z M28.8,512c0-39.2,5.3-76.5,12.5-112.1c17.8,14.2,35.6,30.3,55.2,49.8
	c126.4,115.7,329.3,208.2,404,122.8l0,0c-14.2,17.8-65.9,74.7-163.7,57L181.9,862.6C87.5,775.4,28.8,650.8,28.8,512z"/>
</svg>
