<?xml version="1.0" encoding="utf-8"?>
<!-- Generator: Adobe Illustrator 27.6.1, SVG Export Plug-In . SVG Version: 6.00 Build 0)  -->
<svg version="1.1" id="svg318" xmlns="http://www.w3.org/2000/svg" xmlns:xlink="http://www.w3.org/1999/xlink" x="0px" y="0px"
	 viewBox="0 0 1024 1024" style="enable-background:new 0 0 1024 1024;" xml:space="preserve">
<style type="text/css">
	.st0{fill:none;stroke:#FFFFFF;stroke-width:3;stroke-miterlimit:10;}
</style>
<g id="Layer_x0020_1">
	<g id="_2187289728928">
		<g>
			<path class="st0" d="M648.4,366.9H398.5c-10.6,0-19.3,8.7-19.3,19.3v249.9c0,10.6,8.7,19.3,19.3,19.3h249.9
				c10.6,0,19.3-8.7,19.3-19.3V386.2C667.7,375.6,659,366.9,648.4,366.9z"/>
			<path class="st0" d="M359.9,79.4H110c-10.6,0-19.3,8.7-19.3,19.3v249.9c0,10.6,8.7,19.3,19.3,19.3h249.9
				c10.6,0,19.3-8.7,19.3-19.3V98.7C379.2,88.1,370.5,79.4,359.9,79.4z"/>
			<path class="st0" d="M935.9,79.4H686c-10.6,0-19.3,8.7-19.3,19.3v249.9c0,10.6,8.7,19.3,19.3,19.3h249.9
				c10.6,0,19.3-8.7,19.3-19.3V98.7C955.2,88.1,946.5,79.4,935.9,79.4z"/>
			<path class="st0" d="M359.9,654.5H110c-10.6,0-19.3,8.7-19.3,19.3v249.9c0,10.6,8.7,19.3,19.3,19.3h249.9
				c10.6,0,19.3-8.7,19.3-19.3V673.8C379.2,663.2,370.5,654.5,359.9,654.5z"/>
			<path class="st0" d="M935.9,654.5H686c-10.6,0-19.3,8.7-19.3,19.3v249.9c0,10.6,8.7,19.3,19.3,19.3h249.9
				c10.6,0,19.3-8.7,19.3-19.3V673.8C955.2,663.2,946.5,654.5,935.9,654.5z"/>
		</g>
	</g>
</g>
</svg>
