<?xml version="1.0" encoding="utf-8"?>
<!-- Generator: Adobe Illustrator 27.6.1, SVG Export Plug-In . SVG Version: 6.00 Build 0)  -->
<svg version="1.1" id="svg318" xmlns="http://www.w3.org/2000/svg" xmlns:xlink="http://www.w3.org/1999/xlink" x="0px" y="0px"
	 viewBox="0 0 1024 1024" style="enable-background:new 0 0 1024 1024;" xml:space="preserve">
<style type="text/css">
	.st0{fill-rule:evenodd;clip-rule:evenodd;fill:#633001;}
	.st1{fill:#D1884F;}
	.st2{fill:#FEDC90;}
	.st3{fill:#633001;}
</style>
<path class="st0" d="M511.6,996c-142.3-0.1-256.9-34.2-337-95.6c-81-62.1-124-150.1-124-249.8c0-96,42.9-165.3,91.4-212.1
	c38-36.7,80-60.2,109.2-73.7c-6.6-20.3-14.9-46.8-22.2-74.3c-9.9-36.7-19.6-79.8-19.6-111.3c0-37.3,8.1-74.9,30.1-104
	C262.8,44.5,297.8,28,339.8,28c32.8,0,60.7,12.2,82.5,33.2c20.9,20.1,34.7,46.8,44.3,74.6c16.8,48.9,23.4,110.2,25.2,171.5h40.2
	c1.8-61.3,8.4-122.6,25.2-171.5c9.6-27.8,23.5-54.5,44.3-74.6c21.8-21,49.7-33.2,82.5-33.2c42,0,76.9,16.5,100.1,47.3
	c22,29.1,30.1,66.7,30.1,104c0,31.6-9.7,74.6-19.6,111.3c-7.4,27.4-15.6,54-22.2,74.3c29.2,13.5,71.2,37,109.2,73.7
	c48.5,46.8,91.4,116,91.4,212c0,99.7-43,187.7-124,249.8c-80.1,61.3-194.7,95.5-337,95.6H511.6z"/>
<path class="st1" d="M339.8,63.5c-61.5,0-89.9,46.4-89.9,110.5c0,51,32.9,153.1,46.4,192.8c3,8.9-1.7,18.7-10.4,22.2
	C236.6,408.7,91,480.6,91,645.4c0,173.5,147.9,304.4,420.6,304.6l0.3,0l0.3,0c272.7-0.2,420.6-131,420.6-304.6
	c0-164.7-145.5-236.7-194.9-256.3c-8.7-3.5-13.5-13.3-10.4-22.2c13.5-39.7,46.4-141.8,46.4-192.8c0-64.1-28.3-110.5-89.9-110.5
	c-88.6,0-110.7,126.8-112.2,262.8c-0.1,9.1-7.4,16.4-16.4,16.4h-87.3c-9,0-16.3-7.4-16.4-16.4C450.4,190.3,428.3,63.5,339.8,63.5z"
	/>
<path class="st2" d="M512.3,894.3C311.9,894.3,91.4,786,91,645.7v0.7C91,820,239.2,950.9,512.3,950.9S933.6,820,933.6,646.4v-0.7
	C933.3,786,712.7,894.3,512.3,894.3z"/>
<path class="st3" d="M401,602.6c0,47.4-22.2,72-49.5,72c-27.3,0-49.5-24.7-49.5-72c0-47.4,22.2-72,49.5-72
	C378.8,530.6,401,555.3,401,602.6z M722.6,602.6c0,47.4-22.2,72-49.5,72c-27.3,0-49.5-24.7-49.5-72c0-47.4,22.2-72,49.5-72
	C700.5,530.6,722.6,555.3,722.6,602.6z"/>
</svg>
