<?xml version="1.0" encoding="utf-8"?>
<!-- Generator: Adobe Illustrator 27.6.1, SVG Export Plug-In . SVG Version: 6.00 Build 0)  -->
<svg version="1.1" id="svg318" xmlns="http://www.w3.org/2000/svg" xmlns:xlink="http://www.w3.org/1999/xlink" x="0px" y="0px"
	 viewBox="0 0 1024 1024" style="enable-background:new 0 0 1024 1024;" xml:space="preserve">
<style type="text/css">
	.st0{fill:none;stroke:#FF00C7;stroke-width:3;stroke-miterlimit:10;}
	.st1{fill-rule:evenodd;clip-rule:evenodd;fill:none;stroke:#FF00C7;stroke-width:3;stroke-miterlimit:10;}
</style>
<path class="st0" d="M403.4,251.3c-9.7-1.5-10.2-1.7-5.5-2.3c8.9-1.3,29.7,0.5,44.1,3.9c33.5,8.1,64.1,28.3,96.8,64.7l8.7,9.7
	l12.4-2c52.2-8.4,105.3-1.7,149.8,18.8c12.2,5.7,31.5,16.9,33.9,19.8c0.8,0.8,2.2,6.9,3.2,13.1c3.4,21.8,1.7,38.6-5,51.2
	c-3.7,6.9-3.9,9.1-1.3,14.8c2,4.7,7.4,8.1,12.7,8.1c11.1,0,23-17.8,28.3-42.8l2.2-9.9l4.4,4.9c23.8,27,42.4,63.6,45.6,89.7l0.8,6.9
	l-4-6.2c-6.9-10.7-13.8-17.9-22.6-23.8c-15.9-10.6-32.9-14.1-77.5-16.4c-40.3-2.2-63.1-5.5-85.7-12.9
	c-38.6-12.6-57.9-29.4-103.6-89.2c-20.3-26.7-32.9-41.4-45.3-53.3C467,271.1,439.1,256.9,403.4,251.3z"/>
<path class="st0" d="M752.4,310.9c1-17.8,3.4-29.7,8.4-40.4c1.8-4.2,3.7-7.7,4-7.7s-0.5,3.2-1.8,7c-3.5,10.4-4.2,24.7-1.7,41.3
	c3,21.1,4.9,24.2,27.2,47c10.4,10.7,22.6,24.2,27,29.9l8.1,10.6l-8.1-7.5c-9.7-9.2-32.4-27.2-37.2-29.7c-3.4-1.7-3.9-1.7-5.9,0.3
	c-1.8,1.8-2.3,4.7-2.5,18.1c-0.3,21-3.2,34.4-10.1,47.8c-3.7,7.2-4.4,5.7-1-2.5c2.5-6,2.7-8.7,2.7-29c0-40.6-4.9-50.5-33.2-67.3
	c-7.2-4.2-19-10.4-26.3-13.6c-7.2-3.2-13.1-6-12.9-6.2c0.8-0.8,28.3,7.2,39.6,11.6c16.6,6.4,19.3,7.2,21.3,6.4
	C751.1,326.3,751.7,322.5,752.4,310.9z"/>
<path class="st0" d="M422.5,380.5c-20-27.3-32.2-69.4-29.5-100.8l0.8-9.7l4.5,0.8c8.6,1.5,23.1,7,30,11.2
	c18.8,11.4,27,26.5,35.2,65.2c2.3,11.4,5.7,24.2,7,28.5c2.3,7,11.2,23.3,18.6,33.9c5.2,7.7,1.7,11.2-9.7,10.2
	C461.8,418.2,437.9,401.6,422.5,380.5z"/>
<path class="st0" d="M728.3,584.3c-92.9-37.4-125.8-69.9-125.8-124.8c0-8.1,0.3-14.6,0.7-14.6c0.3,0,3.9,2.7,8.1,5.9
	c18.8,15.1,39.9,21.6,98.5,30c34.4,5,53.7,9.1,71.6,14.9c56.7,18.8,91.9,57,100.3,109c2.5,15.1,1,43.4-3,58.4
	c-3.2,11.7-12.6,33-15.1,33.9c-0.7,0.2-1.3-2.5-1.5-6c-1-19.5-10.9-38.6-27.3-52.8C815.5,622.2,790.2,609.3,728.3,584.3z"/>
<path class="st0" d="M663,599.9c-1.2-6.9-3.2-15.8-4.5-19.6l-2.3-7l4.4,4.9c6,6.9,10.9,15.6,14.9,27.3c3.2,8.9,3.5,11.6,3.5,26
	c0,14.3-0.3,17.1-3.4,25.2c-4.5,12.6-10.2,21.6-19.6,31.2c-16.9,17.3-38.7,26.8-70.3,30.9c-5.5,0.7-21.5,1.8-35.4,2.5
	c-35.4,1.8-58.7,5.7-79.5,12.9c-3,1-5.7,1.7-6,1.5c-0.8-0.8,13.4-9.4,25.2-14.9c16.6-8.1,33-12.4,70.1-18.4
	c18.3-3,37.1-6.7,41.9-8.2C647.3,679.9,670.4,644.1,663,599.9z"/>
<path class="st0" d="M705.6,675.5c-12.4-26.5-15.3-52.2-8.4-76.1c0.7-2.5,1.8-4.7,2.5-4.7c0.7,0,3.7,1.5,6.5,3.5
	c5.7,3.9,17.1,10.2,47.5,26.8c37.9,20.6,59.5,36.7,74.3,55c12.9,16.1,20.8,34.2,24.7,56.5c2.2,12.6,0.8,42.9-2.3,55.7
	c-10.2,40.1-33.9,71.4-67.8,89.9c-5,2.7-9.4,4.9-9.9,4.9s1.3-4.5,4-10.2c11.4-23.8,12.7-47,4-72.6c-5.2-15.8-15.9-35.1-37.7-67.6
	C718,699,711.8,688.9,705.6,675.5z"/>
<path class="st0" d="M356.4,818.7c34.5-29.2,77.5-49.8,116.6-56.2c16.8-2.7,44.9-1.7,60.5,2.3c25,6.4,47.5,20.8,59,37.7
	c11.4,16.8,16.3,31.2,21.3,63.6c2,12.7,4.2,25.7,4.9,28.5c3.9,16.8,11.2,30.2,20.5,36.9c14.6,10.7,39.7,11.4,64.6,1.7
	c4.2-1.7,7.9-2.9,8.1-2.5c0.8,0.8-11.6,9.2-20.3,13.6c-11.9,5.9-21.3,8.2-33.7,8.2c-22.6,0-41.4-11.6-57.2-35.1
	c-3-4.7-10.1-18.4-15.4-30.9c-16.6-37.7-24.8-49.3-43.9-61.9c-16.8-10.9-38.4-12.9-54.7-5c-21.3,10.4-27.3,37.7-12.1,55
	c6,6.9,17.4,12.7,26.7,13.9c17.3,2.2,32.2-11.1,32.2-28.5c0-11.4-4.4-17.8-15.4-22.8c-15.1-6.7-31.2,1.2-31,15.3
	c0,6,2.7,9.7,8.7,12.6c3.9,1.7,4,1.8,0.8,1.2c-13.8-2.9-16.9-19.5-5.9-30.5c13.2-13.2,40.8-7.4,50.3,10.7c4,7.5,4.4,22.6,1,31.9
	c-7.7,20.5-30.4,31.2-53.2,25.3c-15.6-4-22-8.2-40.8-27.7c-32.7-33.7-45.3-40.3-92.4-47.5l-9.1-1.3L356.4,818.7z"/>
<path class="st1" d="M110.1,64.8C219.2,197.3,387.5,403.5,395.9,415c6.9,9.6,4.4,18.1-7.5,24.8c-6.5,3.7-20.1,7.5-26.8,7.5
	c-7.7,0-16.3-3.7-22.5-9.6c-4.4-4.2-22.3-30.9-63.7-95.1c-31.7-49-58-89.7-58.9-90.4c-1.7-1.5-1.7-1.5,55.5,100.8
	c35.9,64.2,48.1,87,48.1,90.1c0,6.2-1.7,9.4-9.4,17.9c-12.7,14.3-18.4,30.2-22.5,63.1c-4.5,36.9-17.6,63.1-53.3,107.8
	c-21,26.2-24.5,31-29.7,41.4c-6.7,13.2-8.6,20.8-9.2,37.6c-0.8,17.8,0.7,29.2,6.2,46.1c4.7,14.8,9.7,24.7,22.3,44.3
	c10.9,16.9,17.3,29.5,17.3,34.4c0,3.9,0.7,3.9,17.6,0.2c40.4-9.2,73.5-25.2,91.9-44.9c11.4-12.2,14.1-19,14.3-35.7
	c0-10.9-0.3-13.2-3.4-19.5c-4.9-10.2-13.6-18.8-32.9-31.9c-25.3-17.3-36.1-31.2-39.1-50.3c-2.5-15.8,0.3-26.8,14.4-56.2
	c14.4-30.4,18.1-43.3,20.5-74c1.5-19.8,3.7-27.5,9.4-33.9c5.9-6.5,11.2-8.7,26-10.7c24-3.2,39.1-9.4,51.7-21
	c10.9-10.1,15.4-19.6,16.1-34.2l0.5-11.1l-6-7C400.5,380,95.3,44.7,94,44.7C93.8,44.7,101,53.8,110.1,64.8z M254,731
	c5-8.7,2.3-20.1-6-25.7c-7.9-5.2-20-2.7-20,4c0,2,1.2,3.5,3.7,4.9c4.4,2.2,4.7,4.7,1.2,9.9c-3.5,5.2-3.2,9.7,0.8,12.9
	C240.2,742.1,249.3,739.4,254,731z"/>
<path class="st1" d="M443.8,484.5c-11.2,3.5-22.1,15.3-25.5,27.8c-2,7.5-0.8,21,2.2,25.2c5,6.7,9.7,8.4,22.8,8.4
	c25.5-0.2,47.8-11.1,50.3-24.8c2.2-11.2-7.7-26.8-21.1-33.7C465.6,483.8,450.9,482.3,443.8,484.5z M473.7,508
	c3.9-5.5,2.2-11.6-4.5-15.8c-12.7-7.7-32-1.3-32,10.7c0,6,10.1,12.6,19.3,12.6C462.4,515.5,470.8,511.8,473.7,508z"/>
</svg>
